{
  "accessors": [
    {
      "bufferView": 0,
      "byteOffset": 0,
      "componentType": 5123,
      "count": 65535,
      "max": [
        65534.0
      ],
      "min": [
        0.0
      ],
      "name": "buffer-0-accessor-indices-buffer-0-mesh-0",
      "type": "SCALAR"
    },
    {
      "bufferView": 2,
      "byteOffset": 0,
      "componentType": 5126,
      "count": 65535,
      "max": [
        2277.14111328125,
        460.0694885253906,
        955.9119873046875
      ],
      "min": [
        0.0,
        0.0,
        0.0
      ],
      "name": "buffer-0-accessor-position-buffer-0-mesh-0",
      "type": "VEC3"
    },
    {
      "bufferView": 2,
      "byteOffset": 786420,
      "componentType": 5126,
      "count": 65535,
      "max": [
        1.0,
        1.0,
        1.0
      ],
      "min": [
        -0.9998999834060669,
        -1.0,
        -0.9998000264167786
      ],
      "name": "buffer-0-accessor-normal-buffer-0-mesh-0",
      "type": "VEC3"
    },
    {
      "bufferView": 1,
      "byteOffset": 0,
      "componentType": 5126,
      "count": 186,
      "max": [
        1.0,
        0.0
      ],
      "min": [
        -2.54830002784729,
        -1.0
      ],
      "name": "buffer-0-accessor-texcoord-buffer-0-mesh-0",
      "type": "VEC2"
    },
    {
      "bufferView": 3,
      "byteOffset": 0,
      "componentType": 5126,
      "count": 0,
      "max": [
        0.0,
        0.0,
        0.0,
        0.0
      ],
      "min": [
        0.0,
        0.0,
        0.0,
        0.0
      ],
      "name": "buffer-0-accessor-color-buffer-0-mesh-0",
      "type": "VEC4"
    },
    {
      "bufferView": 0,
      "byteOffset": 131070,
      "componentType": 5123,
      "count": 65535,
      "max": [
        65534.0
      ],
      "min": [
        0.0
      ],
      "name": "buffer-0-accessor-indices-buffer-0-mesh-1",
      "type": "SCALAR"
    },
    {
      "bufferView": 2,
      "byteOffset": 1572840,
      "componentType": 5126,
      "count": 65535,
      "max": [
        2276.43603515625,
        460.0694885253906,
        956.5604248046875
      ],
      "min": [
        0.0,
        0.0,
        0.0
      ],
      "name": "buffer-0-accessor-position-buffer-0-mesh-1",
      "type": "VEC3"
    },
    {
      "bufferView": 2,
      "byteOffset": 2359260,
      "componentType": 5126,
      "count": 65535,
      "max": [
        1.0,
        1.0,
        0.9998999834060669
      ],
      "min": [
        -0.9998999834060669,
        -1.0,
        -1.0
      ],
      "name": "buffer-0-accessor-normal-buffer-0-mesh-1",
      "type": "VEC3"
    },
    {
      "bufferView": 1,
      "byteOffset": 1488,
      "componentType": 5126,
      "count": 0,
      "max": [
        0.0,
        0.0
      ],
      "min": [
        0.0,
        0.0
      ],
      "name": "buffer-0-accessor-texcoord-buffer-0-mesh-1",
      "type": "VEC2"
    },
    {
      "bufferView": 3,
      "byteOffset": 0,
      "componentType": 5126,
      "count": 0,
      "max": [
        0.0,
        0.0,
        0.0,
        0.0
      ],
      "min": [
        0.0,
        0.0,
        0.0,
        0.0
      ],
      "name": "buffer-0-accessor-color-buffer-0-mesh-1",
      "type": "VEC4"
    },
    {
      "bufferView": 0,
      "byteOffset": 262140,
      "componentType": 5123,
      "count": 65535,
      "max": [
        65534.0
      ],
      "min": [
        0.0
      ],
      "name": "buffer-0-accessor-indices-buffer-0-mesh-2",
      "type": "SCALAR"
    },
    {
      "bufferView": 2,
      "byteOffset": 3145680,
      "componentType": 5126,
      "count": 65535,
      "max": [
        2276.376953125,
        460.03619384765625,
        956.6068725585938
      ],
      "min": [
        0.0,
        0.0,
        0.0
      ],
      "name": "buffer-0-accessor-position-buffer-0-mesh-2",
      "type": "VEC3"
    },
    {
      "bufferView": 2,
      "byteOffset": 3932100,
      "componentType": 5126,
      "count": 65535,
      "max": [
        0.9998999834060669,
        1.0,
        0.9998999834060669
      ],
      "min": [
        -1.0,
        -1.0,
        -0.9994000196456909
      ],
      "name": "buffer-0-accessor-normal-buffer-0-mesh-2",
      "type": "VEC3"
    },
    {
      "bufferView": 1,
      "byteOffset": 1488,
      "componentType": 5126,
      "count": 0,
      "max": [
        0.0,
        0.0
      ],
      "min": [
        0.0,
        0.0
      ],
      "name": "buffer-0-accessor-texcoord-buffer-0-mesh-2",
      "type": "VEC2"
    },
    {
      "bufferView": 3,
      "byteOffset": 0,
      "componentType": 5126,
      "count": 0,
      "max": [
        0.0,
        0.0,
        0.0,
        0.0
      ],
      "min": [
        0.0,
        0.0,
        0.0,
        0.0
      ],
      "name": "buffer-0-accessor-color-buffer-0-mesh-2",
      "type": "VEC4"
    },
    {
      "bufferView": 0,
      "byteOffset": 393210,
      "componentType": 5123,
      "count": 65535,
      "max": [
        65534.0
      ],
      "min": [
        0.0
      ],
      "name": "buffer-0-accessor-indices-buffer-0-mesh-3",
      "type": "SCALAR"
    },
    {
      "bufferView": 2,
      "byteOffset": 4718520,
      "componentType": 5126,
      "count": 65535,
      "max": [
        2276.43603515625,
        459.9252014160156,
        956.6019287109375
      ],
      "min": [
        0.0,
        0.0,
        0.0
      ],
      "name": "buffer-0-accessor-position-buffer-0-mesh-3",
      "type": "VEC3"
    },
    {
      "bufferView": 2,
      "byteOffset": 5504940,
      "componentType": 5126,
      "count": 65535,
      "max": [
        0.9998000264167786,
        1.0,
        1.0
      ],
      "min": [
        -0.9998999834060669,
        -1.0,
        -0.9990000128746033
      ],
      "name": "buffer-0-accessor-normal-buffer-0-mesh-3",
      "type": "VEC3"
    },
    {
      "bufferView": 1,
      "byteOffset": 1488,
      "componentType": 5126,
      "count": 0,
      "max": [
        0.0,
        0.0
      ],
      "min": [
        0.0,
        0.0
      ],
      "name": "buffer-0-accessor-texcoord-buffer-0-mesh-3",
      "type": "VEC2"
    },
    {
      "bufferView": 3,
      "byteOffset": 0,
      "componentType": 5126,
      "count": 0,
      "max": [
        0.0,
        0.0,
        0.0,
        0.0
      ],
      "min": [
        0.0,
        0.0,
        0.0,
        0.0
      ],
      "name": "buffer-0-accessor-color-buffer-0-mesh-3",
      "type": "VEC4"
    },
    {
      "bufferView": 0,
      "byteOffset": 524280,
      "componentType": 5123,
      "count": 65535,
      "max": [
        65534.0
      ],
      "min": [
        0.0
      ],
      "name": "buffer-0-accessor-indices-buffer-0-mesh-4",
      "type": "SCALAR"
    },
    {
      "bufferView": 2,
      "byteOffset": 6291360,
      "componentType": 5126,
      "count": 65535,
      "max": [
        2276.43603515625,
        460.0694885253906,
        956.6068725585938
      ],
      "min": [
        0.0,
        0.0,
        0.0
      ],
      "name": "buffer-0-accessor-position-buffer-0-mesh-4",
      "type": "VEC3"
    },
    {
      "bufferView": 2,
      "byteOffset": 7077780,
      "componentType": 5126,
      "count": 65535,
      "max": [
        0.9998999834060669,
        1.0,
        1.0
      ],
      "min": [
        -1.0,
        -1.0,
        -0.9987999796867371
      ],
      "name": "buffer-0-accessor-normal-buffer-0-mesh-4",
      "type": "VEC3"
    },
    {
      "bufferView": 1,
      "byteOffset": 1488,
      "componentType": 5126,
      "count": 0,
      "max": [
        0.0,
        0.0
      ],
      "min": [
        0.0,
        0.0
      ],
      "name": "buffer-0-accessor-texcoord-buffer-0-mesh-4",
      "type": "VEC2"
    },
    {
      "bufferView": 3,
      "byteOffset": 0,
      "componentType": 5126,
      "count": 0,
      "max": [
        0.0,
        0.0,
        0.0,
        0.0
      ],
      "min": [
        0.0,
        0.0,
        0.0,
        0.0
      ],
      "name": "buffer-0-accessor-color-buffer-0-mesh-4",
      "type": "VEC4"
    },
    {
      "bufferView": 0,
      "byteOffset": 655350,
      "componentType": 5123,
      "count": 51795,
      "max": [
        51794.0
      ],
      "min": [
        0.0
      ],
      "name": "buffer-0-accessor-indices-buffer-0-mesh-5",
      "type": "SCALAR"
    },
    {
      "bufferView": 2,
      "byteOffset": 7864200,
      "componentType": 5126,
      "count": 51795,
      "max": [
        2276.23046875,
        459.2430114746094,
        956.5496215820312
      ],
      "min": [
        0.0,
        0.0,
        0.0
      ],
      "name": "buffer-0-accessor-position-buffer-0-mesh-5",
      "type": "VEC3"
    },
    {
      "bufferView": 2,
      "byteOffset": 8485740,
      "componentType": 5126,
      "count": 51795,
      "max": [
        0.9998999834060669,
        1.0,
        0.9998000264167786
      ],
      "min": [
        -0.9998999834060669,
        -1.0,
        -1.0
      ],
      "name": "buffer-0-accessor-normal-buffer-0-mesh-5",
      "type": "VEC3"
    },
    {
      "bufferView": 1,
      "byteOffset": 1488,
      "componentType": 5126,
      "count": 32664,
      "max": [
        3.0016000270843506,
        1.9184999465942383
      ],
      "min": [
        -2.0016000270843506,
        -3.0016000270843506
      ],
      "name": "buffer-0-accessor-texcoord-buffer-0-mesh-5",
      "type": "VEC2"
    },
    {
      "bufferView": 3,
      "byteOffset": 0,
      "componentType": 5126,
      "count": 0,
      "max": [
        0.0,
        0.0,
        0.0,
        0.0
      ],
      "min": [
        0.0,
        0.0,
        0.0,
        0.0
      ],
      "name": "buffer-0-accessor-color-buffer-0-mesh-5",
      "type": "VEC4"
    },
    {
      "bufferView": 0,
      "byteOffset": 758940,
      "componentType": 5123,
      "count": 65535,
      "max": [
        65534.0
      ],
      "min": [
        0.0
      ],
      "name": "buffer-0-accessor-indices-buffer-0-mesh-0",
      "type": "SCALAR"
    },
    {
      "bufferView": 2,
      "byteOffset": 9107280,
      "componentType": 5126,
      "count": 65535,
      "max": [
        2256.452880859375,
        247.93679809570312,
        942.1771240234375
      ],
      "min": [
        0.0,
        -0.9760000109672546,
        0.0
      ],
      "name": "buffer-0-accessor-position-buffer-0-mesh-0",
      "type": "VEC3"
    },
    {
      "bufferView": 2,
      "byteOffset": 9893700,
      "componentType": 5126,
      "count": 65535,
      "max": [
        0.9966999888420105,
        1.0,
        0.9993000030517578
      ],
      "min": [
        -0.9966999888420105,
        -1.0,
        -0.9993000030517578
      ],
      "name": "buffer-0-accessor-normal-buffer-0-mesh-0",
      "type": "VEC3"
    },
    {
      "bufferView": 1,
      "byteOffset": 262800,
      "componentType": 5126,
      "count": 65535,
      "max": [
        1.0062999725341797,
        0.0
      ],
      "min": [
        -0.009399999864399433,
        -1.0
      ],
      "name": "buffer-0-accessor-texcoord-buffer-0-mesh-0",
      "type": "VEC2"
    },
    {
      "bufferView": 3,
      "byteOffset": 0,
      "componentType": 5126,
      "count": 0,
      "max": [
        0.0,
        0.0,
        0.0,
        0.0
      ],
      "min": [
        0.0,
        0.0,
        0.0,
        0.0
      ],
      "name": "buffer-0-accessor-color-buffer-0-mesh-0",
      "type": "VEC4"
    },
    {
      "bufferView": 0,
      "byteOffset": 890010,
      "componentType": 5123,
      "count": 65535,
      "max": [
        65534.0
      ],
      "min": [
        0.0
      ],
      "name": "buffer-0-accessor-indices-buffer-0-mesh-1",
      "type": "SCALAR"
    },
    {
      "bufferView": 2,
      "byteOffset": 10680120,
      "componentType": 5126,
      "count": 65535,
      "max": [
        2182.72314453125,
        247.13209533691406,
        941.9677734375
      ],
      "min": [
        0.0,
        -0.9760000109672546,
        0.0
      ],
      "name": "buffer-0-accessor-position-buffer-0-mesh-1",
      "type": "VEC3"
    },
    {
      "bufferView": 2,
      "byteOffset": 11466540,
      "componentType": 5126,
      "count": 65535,
      "max": [
        0.9998999834060669,
        1.0,
        0.9993000030517578
      ],
      "min": [
        -0.9995999932289124,
        -1.0,
        -0.9993000030517578
      ],
      "name": "buffer-0-accessor-normal-buffer-0-mesh-1",
      "type": "VEC3"
    },
    {
      "bufferView": 1,
      "byteOffset": 787080,
      "componentType": 5126,
      "count": 65535,
      "max": [
        1.006600022315979,
        0.0
      ],
      "min": [
        -0.009399999864399433,
        -1.0
      ],
      "name": "buffer-0-accessor-texcoord-buffer-0-mesh-1",
      "type": "VEC2"
    },
    {
      "bufferView": 3,
      "byteOffset": 0,
      "componentType": 5126,
      "count": 0,
      "max": [
        0.0,
        0.0,
        0.0,
        0.0
      ],
      "min": [
        0.0,
        0.0,
        0.0,
        0.0
      ],
      "name": "buffer-0-accessor-color-buffer-0-mesh-1",
      "type": "VEC4"
    },
    {
      "bufferView": 0,
      "byteOffset": 1021080,
      "componentType": 5123,
      "count": 49290,
      "max": [
        49289.0
      ],
      "min": [
        0.0
      ],
      "name": "buffer-0-accessor-indices-buffer-0-mesh-2",
      "type": "SCALAR"
    },
    {
      "bufferView": 2,
      "byteOffset": 12252960,
      "componentType": 5126,
      "count": 49290,
      "max": [
        2182.46728515625,
        247.93679809570312,
        941.9677734375
      ],
      "min": [
        0.0,
        -0.9760000109672546,
        0.0
      ],
      "name": "buffer-0-accessor-position-buffer-0-mesh-2",
      "type": "VEC3"
    },
    {
      "bufferView": 2,
      "byteOffset": 12844440,
      "componentType": 5126,
      "count": 49290,
      "max": [
        0.9998999834060669,
        0.9998999834060669,
        0.9995999932289124
      ],
      "min": [
        -0.9995999932289124,
        -0.9994000196456909,
        -1.0
      ],
      "name": "buffer-0-accessor-normal-buffer-0-mesh-2",
      "type": "VEC3"
    },
    {
      "bufferView": 1,
      "byteOffset": 1311360,
      "componentType": 5126,
      "count": 49290,
      "max": [
        1.006600022315979,
        0.0
      ],
      "min": [
        -0.005200000014156103,
        -1.0
      ],
      "name": "buffer-0-accessor-texcoord-buffer-0-mesh-2",
      "type": "VEC2"
    },
    {
      "bufferView": 3,
      "byteOffset": 0,
      "componentType": 5126,
      "count": 0,
      "max": [
        0.0,
        0.0,
        0.0,
        0.0
      ],
      "min": [
        0.0,
        0.0,
        0.0,
        0.0
      ],
      "name": "buffer-0-accessor-color-buffer-0-mesh-2",
      "type": "VEC4"
    },
    {
      "bufferView": 0,
      "byteOffset": 1119660,
      "componentType": 5123,
      "count": 28734,
      "max": [
        28733.0
      ],
      "min": [
        0.0
      ],
      "name": "buffer-0-accessor-indices-buffer-0-mesh-0",
      "type": "SCALAR"
    },
    {
      "bufferView": 2,
      "byteOffset": 13435920,
      "componentType": 5126,
      "count": 28734,
      "max": [
        2294.418701171875,
        258.0945129394531,
        968.6370239257812
      ],
      "min": [
        0.0,
        0.0,
        0.0
      ],
      "name": "buffer-0-accessor-position-buffer-0-mesh-0",
      "type": "VEC3"
    },
    {
      "bufferView": 2,
      "byteOffset": 13780728,
      "componentType": 5126,
      "count": 28734,
      "max": [
        0.996999979019165,
        1.0,
        0.9986000061035156
      ],
      "min": [
        -0.9921000003814697,
        -1.0,
        -0.9990000128746033
      ],
      "name": "buffer-0-accessor-normal-buffer-0-mesh-0",
      "type": "VEC3"
    },
    {
      "bufferView": 1,
      "byteOffset": 1705680,
      "componentType": 5126,
      "count": 25272,
      "max": [
        1.0,
        0.0
      ],
      "min": [
        -2.54830002784729,
        -1.0
      ],
      "name": "buffer-0-accessor-texcoord-buffer-0-mesh-0",
      "type": "VEC2"
    },
    {
      "bufferView": 3,
      "byteOffset": 0,
      "componentType": 5126,
      "count": 0,
      "max": [
        0.0,
        0.0,
        0.0,
        0.0
      ],
      "min": [
        0.0,
        0.0,
        0.0,
        0.0
      ],
      "name": "buffer-0-accessor-color-buffer-0-mesh-0",
      "type": "VEC4"
    },
    {
      "bufferView": 0,
      "byteOffset": 1177128,
      "componentType": 5123,
      "count": 12456,
      "max": [
        12455.0
      ],
      "min": [
        0.0
      ],
      "name": "buffer-0-accessor-indices-buffer-0-mesh-0",
      "type": "SCALAR"
    },
    {
      "bufferView": 2,
      "byteOffset": 14125536,
      "componentType": 5126,
      "count": 12456,
      "max": [
        1973.7960205078125,
        441.4742126464844,
        918.8367919921875
      ],
      "min": [
        0.0,
        0.0,
        0.0
      ],
      "name": "buffer-0-accessor-position-buffer-0-mesh-0",
      "type": "VEC3"
    },
    {
      "bufferView": 2,
      "byteOffset": 14275008,
      "componentType": 5126,
      "count": 12456,
      "max": [
        0.9254000186920166,
        0.930400013923645,
        0.9686999917030334
      ],
      "min": [
        -0.9567000269889832,
        -0.9653000235557556,
        -0.9714000225067139
      ],
      "name": "buffer-0-accessor-normal-buffer-0-mesh-0",
      "type": "VEC3"
    },
    {
      "bufferView": 1,
      "byteOffset": 1907856,
      "componentType": 5126,
      "count": 12456,
      "max": [
        0.9869999885559082,
        0.0
      ],
      "min": [
        0.0,
        -0.9884999990463257
      ],
      "name": "buffer-0-accessor-texcoord-buffer-0-mesh-0",
      "type": "VEC2"
    },
    {
      "bufferView": 3,
      "byteOffset": 0,
      "componentType": 5126,
      "count": 0,
      "max": [
        0.0,
        0.0,
        0.0,
        0.0
      ],
      "min": [
        0.0,
        0.0,
        0.0,
        0.0
      ],
      "name": "buffer-0-accessor-color-buffer-0-mesh-0",
      "type": "VEC4"
    }
  ],
  "asset": {
    "generator": "Obj2GltfConverter",
    "version": "2.0"
  },
  "bufferViews": [
    {
      "buffer": 0,
      "byteLength": 1202040,
      "byteOffset": 0,
      "byteStride": 0,
      "name": "buffer-0-bufferview-ushort",
      "target": 34963
    },
    {
      "buffer": 0,
      "byteLength": 2007504,
      "byteOffset": 1202040,
      "byteStride": 8,
      "name": "buffer-0-bufferview-vec2",
      "target": 34962
    },
    {
      "buffer": 0,
      "byteLength": 14424480,
      "byteOffset": 3209544,
      "byteStride": 12,
      "name": "buffer-0-bufferview-vec3",
      "target": 34962
    },
    {
      "buffer": 0,
      "byteLength": 0,
      "byteOffset": 17634032,
      "byteStride": 16,
      "name": "buffer-0-bufferview-vec4",
      "target": 34962
    }
  ],
  "buffers": [
    {
      "byteLength": 17634032,
      "name": "buffer-0",
      "uri": "Car.bin"
    }
  ],
  "materials": [
    {
      "alphaMode": "OPAQUE",
      "doubleSided": true,
      "name": "_crayfishdiffuse",
      "pbrMetallicRoughness": {
        "baseColorFactor": [
          1.0,
          0.0784,
          0.0784,
          1.0
        ],
        "metallicFactor": 0.0,
        "roughnessFactor": 0.9124375732201923
      }
    },
    {
      "alphaMode": "OPAQUE",
      "doubleSided": true,
      "name": "03___Default",
      "pbrMetallicRoughness": {
        "baseColorFactor": [
          0.0196,
          0.0196,
          0.0196,
          1.0
        ],
        "metallicFactor": 0.0,
        "roughnessFactor": 0.9699476628648295
      }
    },
    {
      "alphaMode": "OPAQUE",
      "doubleSided": true,
      "name": "02___Default",
      "pbrMetallicRoughness": {
        "baseColorFactor": [
          0.9333,
          0.9333,
          0.9333,
          1.0
        ],
        "metallicFactor": 0.0,
        "roughnessFactor": 0.9699476628648295
      }
    },
    {
      "alphaMode": "OPAQUE",
      "doubleSided": true,
      "name": "07___Default",
      "pbrMetallicRoughness": {
        "baseColorFactor": [
          0.3608,
          0.949,
          1.0,
          1.0
        ],
        "metallicFactor": 0.0,
        "roughnessFactor": 0.9699476628648295
      }
    }
  ],
  "meshes": [
    {
      "name": "buffer-0-mesh-0",
      "primitives": [
        {
          "attributes": {
            "POSITION": 1,
            "NORMAL": 2,
            "TEXCOORD_0": 3
          },
          "indices": 0,
          "material": 0,
          "mode": 4
        },
        {
          "attributes": {
            "POSITION": 6,
            "NORMAL": 7,
            "TEXCOORD_0": 8
          },
          "indices": 5,
          "material": 0,
          "mode": 4
        },
        {
          "attributes": {
            "POSITION": 11,
            "NORMAL": 12,
            "TEXCOORD_0": 13
          },
          "indices": 10,
          "material": 0,
          "mode": 4
        },
        {
          "attributes": {
            "POSITION": 16,
            "NORMAL": 17,
            "TEXCOORD_0": 18
          },
          "indices": 15,
          "material": 0,
          "mode": 4
        },
        {
          "attributes": {
            "POSITION": 21,
            "NORMAL": 22,
            "TEXCOORD_0": 23
          },
          "indices": 20,
          "material": 0,
          "mode": 4
        },
        {
          "attributes": {
            "POSITION": 26,
            "NORMAL": 27,
            "TEXCOORD_0": 28
          },
          "indices": 25,
          "material": 0,
          "mode": 4
        },
        {
          "attributes": {
            "POSITION": 31,
            "NORMAL": 32,
            "TEXCOORD_0": 33
          },
          "indices": 30,
          "material": 1,
          "mode": 4
        },
        {
          "attributes": {
            "POSITION": 36,
            "NORMAL": 37,
            "TEXCOORD_0": 38
          },
          "indices": 35,
          "material": 1,
          "mode": 4
        },
        {
          "attributes": {
            "POSITION": 41,
            "NORMAL": 42,
            "TEXCOORD_0": 43
          },
          "indices": 40,
          "material": 1,
          "mode": 4
        },
        {
          "attributes": {
            "POSITION": 46,
            "NORMAL": 47,
            "TEXCOORD_0": 48
          },
          "indices": 45,
          "material": 2,
          "mode": 4
        },
        {
          "attributes": {
            "POSITION": 51,
            "NORMAL": 52,
            "TEXCOORD_0": 53
          },
          "indices": 50,
          "material": 3,
          "mode": 4
        }
      ]
    }
  ],
  "nodes": [
    {
      "mesh": 0,
      "name": "node-0"
    }
  ],
  "scenes": [
    {
      "name": "scene-0",
      "nodes": [
        0
      ]
    }
  ]
}