{"asset":{"version":"2.0","generator":"babylon.js glTF exporter for maya 2018 v1.0.6","copyright":"2017 (c) BabylonJS"},"scene":0,"scenes":[{"nodes":[0,7]}],"nodes":[{"children":[1,2,3,4,5,6],"translation":[-7.5,0.0,0.0],"rotation":[0.0,0.0,0.0,1.0],"scale":[1.0,1.0,1.0],"name":"DemoRoom"},{"mesh":0,"translation":[0.0,2.5,0.0],"rotation":[0.0,0.0,0.0,1.0],"scale":[1.0,1.0,1.0],"name":"Wall1"},{"mesh":1,"translation":[0.0,2.5,0.0],"rotation":[0.0,0.0,0.0,1.0],"scale":[1.0,1.0,1.0],"name":"Wall2"},{"mesh":2,"translation":[0.0,2.5,0.0],"rotation":[0.0,0.0,0.0,1.0],"scale":[1.0,1.0,1.0],"name":"Wall3"},{"mesh":3,"translation":[0.0,2.5,0.0],"rotation":[0.0,0.0,0.0,1.0],"scale":[1.0,1.0,1.0],"name":"Wall4"},{"mesh":4,"translation":[0.0,2.5,0.0],"rotation":[0.0,0.0,0.0,1.0],"scale":[1.0,1.0,1.0],"name":"Ceiling"},{"mesh":5,"translation":[0.0,2.5,0.0],"rotation":[0.0,0.0,0.0,1.0],"scale":[1.0,1.0,1.0],"name":"Floor"},{"children":[8,9,10,11,12,13],"translation":[0.0,0.0,0.0],"rotation":[0.0,0.0,0.0,1.0],"scale":[1.0,1.0,1.0],"name":"Colliders"},{"mesh":6,"translation":[-7.498205,0.0,0.0],"rotation":[0.0,0.0,0.0,1.0],"scale":[15.1012945,1.0,9.99285],"name":"Collider_Floor1"},{"mesh":7,"translation":[-7.50953627,0.0,-4.96725655],"rotation":[0.0,0.0,0.0,1.0],"scale":[1.0,0.498766124,1.0],"name":"Collider_Vertical1"},{"mesh":8,"translation":[-7.50953627,0.0,4.963656],"rotation":[0.0,1.0,0.0,6.123234E-17],"scale":[1.0,0.498766124,1.0],"name":"Collider_Vertical2"},{"mesh":9,"translation":[-15.0123167,-1.77197323E-15,-1.62022282E-17],"rotation":[0.0,0.707106769,0.0,0.707106769],"scale":[0.6544535,0.498766124,1.0],"name":"Collider_Vertical3"},{"mesh":10,"translation":[0.00166694191,-1.77197323E-15,-3.22848344],"rotation":[0.0,-0.707106769,0.0,0.707106769],"scale":[0.240412459,0.498766124,1.0],"name":"Collider_Vertical4"},{"mesh":11,"translation":[0.00166694191,-1.77197323E-15,3.23247862],"rotation":[0.0,-0.707106769,0.0,0.707106769],"scale":[0.240412459,0.498766124,1.0],"name":"Collider_Vertical5"}],"meshes":[{"primitives":[{"attributes":{"POSITION":1,"NORMAL":2,"TANGENT":3,"TEXCOORD_0":4},"indices":0,"mode":4,"material":0}],"name":"Wall1"},{"primitives":[{"attributes":{"POSITION":6,"NORMAL":7,"TANGENT":8,"TEXCOORD_0":9},"indices":5,"mode":4,"material":0}],"name":"Wall2"},{"primitives":[{"attributes":{"POSITION":11,"NORMAL":12,"TANGENT":13,"TEXCOORD_0":14},"indices":10,"mode":4,"material":0}],"name":"Wall3"},{"primitives":[{"attributes":{"POSITION":16,"NORMAL":17,"TANGENT":18,"TEXCOORD_0":19},"indices":15,"mode":4,"material":0}],"name":"Wall4"},{"primitives":[{"attributes":{"POSITION":21,"NORMAL":22,"TANGENT":23,"TEXCOORD_0":24},"indices":20,"mode":4,"material":0}],"name":"Ceiling"},{"primitives":[{"attributes":{"POSITION":26,"NORMAL":27,"TANGENT":28,"TEXCOORD_0":29},"indices":25,"mode":4,"material":0}],"name":"Floor"},{"primitives":[{"attributes":{"POSITION":31,"NORMAL":32,"TANGENT":33,"TEXCOORD_0":34},"indices":30,"mode":4,"material":0}],"name":"Collider_Floor1"},{"primitives":[{"attributes":{"POSITION":36,"NORMAL":37,"TANGENT":38,"TEXCOORD_0":39},"indices":35,"mode":4,"material":0}],"name":"Collider_Vertical1"},{"primitives":[{"attributes":{"POSITION":41,"NORMAL":42,"TANGENT":43,"TEXCOORD_0":44},"indices":40,"mode":4,"material":0}],"name":"Collider_Vertical2"},{"primitives":[{"attributes":{"POSITION":46,"NORMAL":47,"TANGENT":48,"TEXCOORD_0":49},"indices":45,"mode":4,"material":0}],"name":"Collider_Vertical3"},{"primitives":[{"attributes":{"POSITION":51,"NORMAL":52,"TANGENT":53,"TEXCOORD_0":54},"indices":50,"mode":4,"material":0}],"name":"Collider_Vertical4"},{"primitives":[{"attributes":{"POSITION":56,"NORMAL":57,"TANGENT":58,"TEXCOORD_0":59},"indices":55,"mode":4,"material":0}],"name":"Collider_Vertical5"}],"accessors":[{"bufferView":0,"componentType":5123,"count":42,"type":"SCALAR","name":"accessorIndices"},{"bufferView":1,"componentType":5126,"count":16,"max":[7.5,2.5,5.0],"min":[7.5,-2.5,-5.0],"type":"VEC3","name":"accessorPositions"},{"bufferView":1,"byteOffset":192,"componentType":5126,"count":16,"type":"VEC3","name":"accessorNormals"},{"bufferView":2,"componentType":5126,"count":16,"type":"VEC4","name":"accessorTangents"},{"bufferView":3,"componentType":5126,"count":16,"type":"VEC2","name":"accessorUVs"},{"bufferView":0,"byteOffset":84,"componentType":5123,"count":6,"type":"SCALAR","name":"accessorIndices"},{"bufferView":1,"byteOffset":384,"componentType":5126,"count":4,"max":[-7.5,2.5,5.0],"min":[-7.5,-2.5,-5.0],"type":"VEC3","name":"accessorPositions"},{"bufferView":1,"byteOffset":432,"componentType":5126,"count":4,"type":"VEC3","name":"accessorNormals"},{"bufferView":2,"byteOffset":256,"componentType":5126,"count":4,"type":"VEC4","name":"accessorTangents"},{"bufferView":3,"byteOffset":128,"componentType":5126,"count":4,"type":"VEC2","name":"accessorUVs"},{"bufferView":0,"byteOffset":96,"componentType":5123,"count":6,"type":"SCALAR","name":"accessorIndices"},{"bufferView":1,"byteOffset":480,"componentType":5126,"count":4,"max":[7.5,2.5,-5.0],"min":[-7.5,-2.5,-5.0],"type":"VEC3","name":"accessorPositions"},{"bufferView":1,"byteOffset":528,"componentType":5126,"count":4,"type":"VEC3","name":"accessorNormals"},{"bufferView":2,"byteOffset":320,"componentType":5126,"count":4,"type":"VEC4","name":"accessorTangents"},{"bufferView":3,"byteOffset":160,"componentType":5126,"count":4,"type":"VEC2","name":"accessorUVs"},{"bufferView":0,"byteOffset":108,"componentType":5123,"count":6,"type":"SCALAR","name":"accessorIndices"},{"bufferView":1,"byteOffset":576,"componentType":5126,"count":4,"max":[7.5,2.5,5.0],"min":[-7.5,-2.5,5.0],"type":"VEC3","name":"accessorPositions"},{"bufferView":1,"byteOffset":624,"componentType":5126,"count":4,"type":"VEC3","name":"accessorNormals"},{"bufferView":2,"byteOffset":384,"componentType":5126,"count":4,"type":"VEC4","name":"accessorTangents"},{"bufferView":3,"byteOffset":192,"componentType":5126,"count":4,"type":"VEC2","name":"accessorUVs"},{"bufferView":0,"byteOffset":120,"componentType":5123,"count":6,"type":"SCALAR","name":"accessorIndices"},{"bufferView":1,"byteOffset":672,"componentType":5126,"count":4,"max":[7.5,2.5,5.0],"min":[-7.5,2.5,-5.0],"type":"VEC3","name":"accessorPositions"},{"bufferView":1,"byteOffset":720,"componentType":5126,"count":4,"type":"VEC3","name":"accessorNormals"},{"bufferView":2,"byteOffset":448,"componentType":5126,"count":4,"type":"VEC4","name":"accessorTangents"},{"bufferView":3,"byteOffset":224,"componentType":5126,"count":4,"type":"VEC2","name":"accessorUVs"},{"bufferView":0,"byteOffset":132,"componentType":5123,"count":6,"type":"SCALAR","name":"accessorIndices"},{"bufferView":1,"byteOffset":768,"componentType":5126,"count":4,"max":[7.5,-2.5,5.0],"min":[-7.5,-2.5,-5.0],"type":"VEC3","name":"accessorPositions"},{"bufferView":1,"byteOffset":816,"componentType":5126,"count":4,"type":"VEC3","name":"accessorNormals"},{"bufferView":2,"byteOffset":512,"componentType":5126,"count":4,"type":"VEC4","name":"accessorTangents"},{"bufferView":3,"byteOffset":256,"componentType":5126,"count":4,"type":"VEC2","name":"accessorUVs"},{"bufferView":0,"byteOffset":144,"componentType":5123,"count":6,"type":"SCALAR","name":"accessorIndices"},{"bufferView":1,"byteOffset":864,"componentType":5126,"count":4,"max":[0.5,1.110223E-16,0.5],"min":[-0.5,-1.110223E-16,-0.5],"type":"VEC3","name":"accessorPositions"},{"bufferView":1,"byteOffset":912,"componentType":5126,"count":4,"type":"VEC3","name":"accessorNormals"},{"bufferView":2,"byteOffset":576,"componentType":5126,"count":4,"type":"VEC4","name":"accessorTangents"},{"bufferView":3,"byteOffset":288,"componentType":5126,"count":4,"type":"VEC2","name":"accessorUVs"},{"bufferView":0,"byteOffset":156,"componentType":5123,"count":6,"type":"SCALAR","name":"accessorIndices"},{"bufferView":1,"byteOffset":960,"componentType":5126,"count":4,"max":[7.55064726,9.99285,0.0],"min":[-7.55064726,1.94283682E-08,0.0],"type":"VEC3","name":"accessorPositions"},{"bufferView":1,"byteOffset":1008,"componentType":5126,"count":4,"type":"VEC3","name":"accessorNormals"},{"bufferView":2,"byteOffset":640,"componentType":5126,"count":4,"type":"VEC4","name":"accessorTangents"},{"bufferView":3,"byteOffset":320,"componentType":5126,"count":4,"type":"VEC2","name":"accessorUVs"},{"bufferView":0,"byteOffset":168,"componentType":5123,"count":6,"type":"SCALAR","name":"accessorIndices"},{"bufferView":1,"byteOffset":1056,"componentType":5126,"count":4,"max":[7.55064726,9.99285,0.0],"min":[-7.55064726,1.94283682E-08,0.0],"type":"VEC3","name":"accessorPositions"},{"bufferView":1,"byteOffset":1104,"componentType":5126,"count":4,"type":"VEC3","name":"accessorNormals"},{"bufferView":2,"byteOffset":704,"componentType":5126,"count":4,"type":"VEC4","name":"accessorTangents"},{"bufferView":3,"byteOffset":352,"componentType":5126,"count":4,"type":"VEC2","name":"accessorUVs"},{"bufferView":0,"byteOffset":180,"componentType":5123,"count":6,"type":"SCALAR","name":"accessorIndices"},{"bufferView":1,"byteOffset":1152,"componentType":5126,"count":4,"max":[7.55064726,9.99285,0.0],"min":[-7.55064726,1.94283682E-08,0.0],"type":"VEC3","name":"accessorPositions"},{"bufferView":1,"byteOffset":1200,"componentType":5126,"count":4,"type":"VEC3","name":"accessorNormals"},{"bufferView":2,"byteOffset":768,"componentType":5126,"count":4,"type":"VEC4","name":"accessorTangents"},{"bufferView":3,"byteOffset":384,"componentType":5126,"count":4,"type":"VEC2","name":"accessorUVs"},{"bufferView":0,"byteOffset":192,"componentType":5123,"count":6,"type":"SCALAR","name":"accessorIndices"},{"bufferView":1,"byteOffset":1248,"componentType":5126,"count":4,"max":[7.55064726,9.99285,0.0],"min":[-7.55064726,1.94283682E-08,0.0],"type":"VEC3","name":"accessorPositions"},{"bufferView":1,"byteOffset":1296,"componentType":5126,"count":4,"type":"VEC3","name":"accessorNormals"},{"bufferView":2,"byteOffset":832,"componentType":5126,"count":4,"type":"VEC4","name":"accessorTangents"},{"bufferView":3,"byteOffset":416,"componentType":5126,"count":4,"type":"VEC2","name":"accessorUVs"},{"bufferView":0,"byteOffset":204,"componentType":5123,"count":6,"type":"SCALAR","name":"accessorIndices"},{"bufferView":1,"byteOffset":1344,"componentType":5126,"count":4,"max":[7.55064726,9.99285,0.0],"min":[-7.55064726,1.94283682E-08,0.0],"type":"VEC3","name":"accessorPositions"},{"bufferView":1,"byteOffset":1392,"componentType":5126,"count":4,"type":"VEC3","name":"accessorNormals"},{"bufferView":2,"byteOffset":896,"componentType":5126,"count":4,"type":"VEC4","name":"accessorTangents"},{"bufferView":3,"byteOffset":448,"componentType":5126,"count":4,"type":"VEC2","name":"accessorUVs"}],"bufferViews":[{"buffer":0,"byteLength":216,"name":"bufferViewScalar"},{"buffer":0,"byteOffset":216,"byteLength":1440,"byteStride":12,"name":"bufferViewFloatVec3"},{"buffer":0,"byteOffset":1656,"byteLength":960,"byteStride":16,"name":"bufferViewFloatVec4"},{"buffer":0,"byteOffset":2616,"byteLength":480,"byteStride":8,"name":"bufferViewFloatVec2"}],"buffers":[{"uri":"DemoRoom_greybox.bin","byteLength":3096}],"materials":[{"pbrMetallicRoughness":{"baseColorFactor":[0.9999999,0.9999999,0.9999999,1.0],"metallicFactor":0.9999998,"roughnessFactor":0.75},"emissiveFactor":[0.0,0.0,0.0],"alphaMode":"OPAQUE","name":"lambert1"}]}