{
	"accessors" : 
	[
		{
			"bufferView" : 2,
			"byteOffset" : 0,
			"componentType" : 5126,
			"count" : 6416,
			"max" : 
			[
				1,
				1,
				1,
				1
			],
			"min" : 
			[
				0,
				0.006584956776350737,
				0,
				1
			],
			"name" : "accessor_color_m0-PolyPaper23_-881656",
			"type" : "VEC4"
		},
		{
			"bufferView" : 2,
			"byteOffset" : 102656,
			"componentType" : 5126,
			"count" : 168,
			"max" : 
			[
				1,
				1,
				1,
				1
			],
			"min" : 
			[
				1,
				1,
				1,
				1
			],
			"name" : "accessor_color_m1-PolyGem25_-881312",
			"type" : "VEC4"
		},
		{
			"bufferView" : 0,
			"byteOffset" : 0,
			"componentType" : 5123,
			"count" : 9504,
			"max" : 
			[
				6415
			],
			"min" : 
			[
				0
			],
			"name" : "accessor_indices_0_m0-PolyPaper23_-881656",
			"type" : "SCALAR"
		},
		{
			"bufferView" : 0,
			"byteOffset" : 19008,
			"componentType" : 5123,
			"count" : 420,
			"max" : 
			[
				167
			],
			"min" : 
			[
				0
			],
			"name" : "accessor_indices_0_m1-PolyGem25_-881312",
			"type" : "SCALAR"
		},
		{
			"bufferView" : 1,
			"byteOffset" : 76992,
			"componentType" : 5126,
			"count" : 6416,
			"max" : 
			[
				0.9980814,
				0.9963621,
				0.9951727
			],
			"min" : 
			[
				-0.9980815,
				-1,
				-0.9951727
			],
			"name" : "accessor_normal_m0-PolyPaper23_-881656",
			"type" : "VEC3"
		},
		{
			"bufferView" : 1,
			"byteOffset" : 156000,
			"componentType" : 5126,
			"count" : 168,
			"max" : 
			[
				0.781561,
				0.9731334,
				0.8396237
			],
			"min" : 
			[
				-0.7815673,
				-0.9731333,
				-0.8396237
			],
			"name" : "accessor_normal_m1-PolyGem25_-881312",
			"type" : "VEC3"
		},
		{
			"bufferView" : 1,
			"byteOffset" : 0,
			"componentType" : 5126,
			"count" : 6416,
			"max" : 
			[
				4.215135,
				0.2480459,
				4.119968
			],
			"min" : 
			[
				-3.420001,
				-2.167299,
				-3.515168
			],
			"name" : "accessor_position_m0-PolyPaper23_-881656",
			"type" : "VEC3"
		},
		{
			"bufferView" : 1,
			"byteOffset" : 153984,
			"componentType" : 5126,
			"count" : 168,
			"max" : 
			[
				1.62313,
				-0.1411671,
				0.4138735
			],
			"min" : 
			[
				1.16777,
				-0.4774271,
				-0.04623741
			],
			"name" : "accessor_position_m1-PolyGem25_-881312",
			"type" : "VEC3"
		}
	],
	"asset" : 
	{
		"copyright" : "Unknown",
		"generator" : "glTF 1-to-2 Upgrader for Google Blocks",
		"version" : "2.0"
	},
	"bufferViews" : 
	[
		{
			"buffer" : 0,
			"byteLength" : 19848,
			"byteOffset" : 0,
			"name" : "ushortBufferView",
			"target" : 34963
		},
		{
			"buffer" : 0,
			"byteLength" : 158016,
			"byteOffset" : 19848,
			"byteStride" : 12,
			"name" : "vec3BufferView",
			"target" : 34962
		},
		{
			"buffer" : 0,
			"byteLength" : 105344,
			"byteOffset" : 177864,
			"byteStride" : 16,
			"name" : "vec4BufferView",
			"target" : 34962
		}
	],
	"buffers" : 
	[
		{
			"byteLength" : 283208,
			"name" : "model",
			"uri" : "model.bin"
		}
	],
	"materials" : 
	[
		{
			"alphaMode" : "OPAQUE",
			"doubleSided" : false,
			"name" : "BlocksPaper",
			"pbrMetallicRoughness" : 
			{
				"baseColorFactor" : 
				[
					1,
					1,
					1,
					1
				],
				"metallicFactor" : 0,
				"roughnessFactor" : 0.6
			}
		},
		{
			"alphaMode" : "BLEND",
			"doubleSided" : false,
			"name" : "BlocksGlass",
			"pbrMetallicRoughness" : 
			{
				"baseColorFactor" : 
				[
					0.2,
					0.2,
					1,
					0.3
				],
				"metallicFactor" : 1,
				"roughnessFactor" : 0.4
			}
		},
		{
			"alphaMode" : "OPAQUE",
			"doubleSided" : true,
			"name" : "BlocksGem",
			"pbrMetallicRoughness" : 
			{
				"baseColorFactor" : 
				[
					1,
					0.4,
					1,
					1
				],
				"metallicFactor" : 0,
				"roughnessFactor" : 0.1
			}
		}
	],
	"meshes" : 
	[
		{
			"name" : "mesh_m0-PolyPaper23_-881656",
			"primitives" : 
			[
				{
					"attributes" : 
					{
						"COLOR_0" : 0,
						"NORMAL" : 4,
						"POSITION" : 6
					},
					"indices" : 2,
					"material" : 0,
					"mode" : 4
				}
			]
		},
		{
			"name" : "mesh_m1-PolyGem25_-881312",
			"primitives" : 
			[
				{
					"attributes" : 
					{
						"COLOR_0" : 1,
						"NORMAL" : 5,
						"POSITION" : 7
					},
					"indices" : 3,
					"material" : 2,
					"mode" : 4
				}
			]
		}
	],
	"nodes" : 
	[
		{
			"matrix" : 
			[
				1,
				0,
				0,
				0,
				0,
				1,
				0,
				0,
				0,
				0,
				1,
				0,
				0,
				0,
				0,
				1
			],
			"mesh" : 0,
			"name" : "node_MeshObject-303953472-PolyPaper23"
		},
		{
			"matrix" : 
			[
				1,
				0,
				0,
				0,
				0,
				1,
				0,
				0,
				0,
				0,
				1,
				0,
				0,
				0,
				0,
				1
			],
			"mesh" : 1,
			"name" : "node_MeshObject214766592-PolyGem25"
		}
	],
	"scene" : 0,
	"scenes" : 
	[
		{
			"extras" : {},
			"name" : "defaultScene",
			"nodes" : 
			[
				0,
				1
			]
		}
	]
}